<?xml version="1.0" encoding="utf-8"?>
<!-- Generator: Adobe Illustrator 18.1.1, SVG Export Plug-In . SVG Version: 6.00 Build 0)  -->
<!DOCTYPE svg PUBLIC "-//W3C//DTD SVG 1.1//EN" "http://www.w3.org/Graphics/SVG/1.1/DTD/svg11.dtd">
<svg version="1.1" id="_x31_0" xmlns="http://www.w3.org/2000/svg" xmlns:xlink="http://www.w3.org/1999/xlink" x="0px" y="0px"
	 viewBox="0 0 512 512" style="enable-background:new 0 0 512 512;" xml:space="preserve">
<style type="text/css">
	.st0{fill:#1dace0;}
</style>
<g>
	<path class="st0" d="M426.027,18.867H209.039c-47.406,0-85.977,38.57-85.977,85.977v146.34c0,47.406,38.57,85.976,85.977,85.976
		h109.738l96.398,88.555c2.722,2.5,6.23,3.808,9.785,3.808c1.938,0,3.887-0.386,5.734-1.187c5.238-2.262,8.653-7.394,8.719-13.102
		l0.918-79.266c40.621-6.828,71.668-42.25,71.668-84.782V104.844C512,57.438,473.434,18.867,426.027,18.867z M222.754,245.5
		c0-6.031,4.891-10.922,10.926-10.922h91.102c6.031,0,10.922,4.89,10.922,10.922c0,6.035-4.89,10.922-10.922,10.922H233.68
		C227.645,256.422,222.754,251.535,222.754,245.5z M233.68,177.246h167.706c6.031,0,10.922,4.89,10.922,10.922
		c0,6.035-4.891,10.926-10.922,10.926H233.68c-6.035,0-10.926-4.89-10.926-10.926C222.754,182.137,227.645,177.246,233.68,177.246z
		 M401.386,141.762H233.68c-6.035,0-10.926-4.89-10.926-10.922c0-6.035,4.891-10.926,10.926-10.926h167.706
		c6.031,0,10.922,4.89,10.922,10.926C412.309,136.871,407.418,141.762,401.386,141.762z"/>
	<path class="st0" d="M309.328,361.442h-4.438c-10.086,7.476-22.668,11.91-36.218,11.91h-98.328l-38.493,44.906l-28.965,33.614
		l-0.91-78.52c-33.606,0-60.894-27.285-60.894-60.953V187.695c0-32.574,25.523-59.191,57.671-60.89v-21.938
		c0-6,0.524-11.93,1.504-17.68c0.086-0.422,0.11-0.89,0.199-1.304c-0.007,0-0.015,0-0.023,0c0.012-0.055,0.016-0.11,0.023-0.161
		C44.91,86.512,0,131.91,0,187.695v124.703c0,41.75,25.222,77.789,61.32,93.527l0.547,46.614
		c0.183,16.164,9.844,30.75,24.734,37.191c5.222,2.25,10.816,3.402,16.285,3.402c10.086,0,1.825-3.766,9.602-10.879l73.898-67.878
		h82.286c25.543,0,48.894-9.512,66.812-25.051c0.676-0.578,1.395-1.098,2.055-1.691l-0.016-0.015
		c0.039-0.035,0.086-0.067,0.126-0.102L309.328,361.442z"/>
</g>
</svg>
