<?xml version="1.0" encoding="utf-8"?>
<!-- Generator: Adobe Illustrator 18.0.0, SVG Export Plug-In . SVG Version: 6.00 Build 0)  -->
<!DOCTYPE svg PUBLIC "-//W3C//DTD SVG 1.1//EN" "http://www.w3.org/Graphics/SVG/1.1/DTD/svg11.dtd">
<svg version="1.1" id="_x31_0" xmlns="http://www.w3.org/2000/svg" xmlns:xlink="http://www.w3.org/1999/xlink" x="0px" y="0px"
	 viewBox="0 0 512 512" style="enable-background:new 0 0 512 512;" xml:space="preserve">
<style type="text/css">
	.st0{fill:#1dace0;}
</style>
<g>
	<polygon class="st0" points="173.942,222.59 78.746,383.801 196.879,383.801 269.074,383.801 230.289,318.07 	"/>
	<polygon class="st0" points="239.5,299.875 283.89,375.046 289.039,383.801 433.258,383.801 315.066,151.082 	"/>
	<path class="st0" d="M199.453,171.59c14.997,0,27.149-12.156,27.149-27.148c0-14.996-12.152-27.153-27.149-27.153
		c-14.992,0-27.148,12.157-27.148,27.153C172.305,159.434,184.461,171.59,199.453,171.59z"/>
	<path class="st0" d="M0,47.195v417.61h512V47.195H0z M28.606,436.199V75.797h454.793v360.402H28.606z"/>
</g>
</svg>
