<?xml version="1.0" encoding="utf-8"?>
<!-- Generator: Adobe Illustrator 19.1.1, SVG Export Plug-In . SVG Version: 6.00 Build 0)  -->
<svg version="1.1" id="_x31_0" xmlns="http://www.w3.org/2000/svg" xmlns:xlink="http://www.w3.org/1999/xlink" x="0px" y="0px"
	 viewBox="0 0 512 512" style="enable-background:new 0 0 512 512;" xml:space="preserve">
<style type="text/css">
	.st0{fill:#1dace0;}
</style>
<g>
	<polygon class="st0" points="315.695,304.588 332.95,304.588 332.95,259.826 350.125,259.826 350.125,143.17 350.125,142.814 
		350.125,142.814 350.125,142.654 332.95,142.654 332.95,130.092 332.95,130.052 332.95,130.052 332.95,129.896 315.906,129.896 
		315.855,129.896 315.855,129.896 315.695,129.896 315.695,142.654 298.711,142.654 298.66,142.654 298.66,142.654 298.5,142.654 
		298.5,259.826 315.695,259.826 	"/>
	<polygon class="st0" points="469.566,289.252 486.824,289.252 486.824,244.498 504,244.498 504,102.006 504,101.568 504,101.568 
		504,101.412 486.824,101.412 486.824,88.869 486.824,88.83 486.824,88.83 486.824,88.67 469.778,88.67 469.726,88.67 
		469.726,88.67 469.566,88.67 469.566,101.412 452.582,101.412 452.531,101.412 452.531,101.412 452.371,101.412 452.371,244.498 
		469.566,244.498 	"/>
	<polygon class="st0" points="164.218,373.744 181.477,373.744 181.477,320.631 181.477,320.631 198.668,320.631 198.668,203.971 
		198.668,203.615 198.668,203.615 198.668,203.455 181.477,203.455 181.477,164.127 181.477,164.006 181.477,164.006 
		181.477,163.846 164.43,163.846 164.379,163.846 164.379,163.846 164.218,163.846 164.218,203.455 147.254,203.455 
		147.203,203.455 147.203,203.455 147.043,203.455 147.043,320.631 164.218,320.631 	"/>
	<path class="st0" d="M237.641,346.6h17.258l-0.027-17.254h17.054V135.44v-0.59l0,0v-0.16h-17.23l-0.054-45.774V88.83l0,0v-0.16
		h-17.047h-0.05l0,0h-0.16l0.058,46.019h-16.934l-0.051-0.004v0.004h-0.16v194.657h17.317L237.641,346.6z M237.554,266.502V151.944
		h17.114v160.144h-17.054L237.554,266.502z"/>
	<path class="st0" d="M96.625,403.604h17.258v-10.813h17.199V227.388v-0.508l0,0v-0.156h-17.199v-77.89V148.6l0,0v-0.16H96.836
		l-0.051-0.004v0.004h-0.16v78.285H79.664h-0.05l0,0h-0.161v166.066h17.172V403.604z M96.711,375.533V243.982h17.113v131.551H96.711
		z"/>
	<path class="st0" d="M394.793,265.178h17.258v-29.422h17.168V70.353v-0.504l0,0v-0.16H412.05V21.216v-0.148l0,0v-0.16h-17.046
		h-0.051l0,0h-0.16v48.781h-16.988l-0.051-0.004v0.004h-0.16v166.066h17.199V265.178z M394.848,218.498V86.944h17.117v131.554
		H394.848z"/>
	<polygon class="st0" points="512,461.174 512,461.174 512,461.014 37.894,461.014 36.606,461.014 36.606,13.295 36.606,11.928 
		36.606,11.928 36.606,11.768 0.27,11.768 0.16,11.764 0.16,11.768 0,11.768 0,500.236 22.222,500.236 512,500.236 512,461.295 	"/>
	<polygon class="st0" points="225.875,437.568 401.836,359.857 406.106,369.525 408.145,374.334 408.199,374.264 408.274,374.432 
		434.222,338.932 447.199,321.311 447.11,321.303 447.218,321.154 403.762,316.451 381.754,313.986 381.789,314.072 
		381.606,314.052 388.039,328.623 212.262,406.256 212.23,406.268 212.23,406.268 212.082,406.334 	"/>
</g>
</svg>
